<svg width="13" height="13" viewBox="0 0 13 13" fill="none" xmlns="http://www.w3.org/2000/svg">
<path fill-rule="evenodd" clip-rule="evenodd" d="M1.24279 1.24268C1.63332 0.852158 2.26648 0.852158 2.65701 1.24268L6.89965 5.48532L11.1423 1.24268C11.5328 0.852157 12.166 0.852158 12.5565 1.24268C12.947 1.63321 12.947 2.26637 12.5565 2.6569L8.31386 6.89954L12.5565 11.1422C12.947 11.5327 12.947 12.1659 12.5565 12.5564C12.166 12.9469 11.5328 12.9469 11.1423 12.5564L6.89965 8.31375L2.65701 12.5564C2.26648 12.9469 1.63332 12.9469 1.24279 12.5564C0.852267 12.1659 0.852267 11.5327 1.24279 11.1422L5.48543 6.89954L1.24279 2.6569C0.852267 2.26637 0.852267 1.63321 1.24279 1.24268Z" fill="#D4D4D4"/>
</svg>
