<svg width="15" height="28" viewBox="0 0 15 28" fill="none" xmlns="http://www.w3.org/2000/svg">
<path fill-rule="evenodd" clip-rule="evenodd" d="M4.27646 2.52773C5.27695 1.16903 6.92908 0.2258 9.39731 0.2258H9.40121L13.1337 0.240375C13.7946 0.242955 14.329 0.779455 14.329 1.44037V5.42158C14.329 6.07702 13.8001 6.62158 13.1301 6.62158H10.4742C10.438 6.62158 10.406 6.62643 10.3835 6.63302C10.3811 6.63374 10.3789 6.63444 10.3769 6.63509C10.3684 6.65687 10.3486 6.72109 10.3486 6.8503V8.50354H13.1725C13.8837 8.50354 14.4388 9.11854 14.3663 9.82599L13.9443 13.9398C13.8815 14.5519 13.3659 15.0173 12.7505 15.0173H10.3486V26.5922C10.3486 27.2705 9.79571 27.7898 9.14863 27.7898H4.2395C3.5934 27.7898 3.0395 27.2716 3.0395 26.5923V15.0173H1.71538C1.05264 15.0173 0.515381 14.4801 0.515381 13.8173V9.70354C0.515381 9.0408 1.05264 8.50354 1.71538 8.50354H3.0395V6.5836C3.0395 5.40822 3.31426 3.83442 4.27646 2.52773ZM5.88693 3.71363C5.26137 4.56316 5.0395 5.66826 5.0395 6.5836V10.5035H2.51538V13.0173H5.0395V25.7898H8.34863V13.0173H12.0284L12.2863 10.5035H8.34863V6.8503C8.34863 6.11163 8.60594 5.49556 9.10378 5.08829C9.56358 4.71214 10.0987 4.62158 10.4742 4.62158H12.329V2.23725L9.39731 2.2258C9.39668 2.2258 9.39605 2.2258 9.39542 2.2258C7.5003 2.22626 6.474 2.91637 5.88693 3.71363Z" fill="white"/>
</svg>
