<svg width="19" height="19" viewBox="0 0 19 19" fill="none" xmlns="http://www.w3.org/2000/svg">
<g clip-path="url(#clip0_19_387)">
<path d="M17.327 4.72464C17.292 4.67775 17.2482 4.6382 17.1979 4.60827C17.1476 4.57834 17.092 4.5586 17.0341 4.55019C16.9762 4.54178 16.9172 4.54486 16.8605 4.55926C16.8038 4.57366 16.7505 4.59909 16.7036 4.6341L9.52069 9.99566C9.49499 10.0149 9.46374 10.0253 9.43163 10.0253C9.39951 10.0253 9.36826 10.0149 9.34256 9.99566L2.30069 4.61035C2.2542 4.57487 2.20117 4.5489 2.14465 4.53391C2.08812 4.51893 2.02919 4.51522 1.97123 4.52301C1.91327 4.5308 1.85741 4.54992 1.80684 4.5793C1.75627 4.60868 1.71199 4.64772 1.67651 4.69421C1.64103 4.74071 1.61506 4.79373 1.60007 4.85026C1.58509 4.90679 1.58138 4.96571 1.58917 5.02367C1.59696 5.08163 1.61609 5.13749 1.64546 5.18806C1.67484 5.23863 1.71389 5.28292 1.76038 5.31839L7.29709 9.55332L1.82124 13.6799C1.77406 13.7151 1.73428 13.7592 1.70416 13.8098C1.67405 13.8603 1.65418 13.9163 1.6457 13.9745C1.63723 14.0328 1.6403 14.0921 1.65476 14.1492C1.66921 14.2062 1.69476 14.2599 1.72995 14.307C1.76513 14.3542 1.80926 14.394 1.85982 14.4241C1.91038 14.4542 1.96638 14.4741 2.02461 14.4826C2.08285 14.491 2.14219 14.488 2.19923 14.4735C2.25628 14.4591 2.30992 14.4335 2.3571 14.3983L8.03186 10.1144L8.80077 10.7082C8.98005 10.8454 9.19916 10.9205 9.42494 10.9221C9.65072 10.9237 9.87087 10.8517 10.0521 10.7171L10.8596 10.1144L16.6012 14.3983C16.648 14.4333 16.7014 14.4587 16.7581 14.4731C16.8148 14.4875 16.8737 14.4906 16.9316 14.4822C16.9895 14.4738 17.0452 14.454 17.0955 14.4241C17.1457 14.3942 17.1896 14.3547 17.2246 14.3078C17.2596 14.2609 17.285 14.2076 17.2994 14.1509C17.3138 14.0942 17.3168 14.0352 17.3084 13.9773C17.3 13.9194 17.2803 13.8637 17.2504 13.8135C17.2205 13.7632 17.1809 13.7193 17.134 13.6843L11.6033 9.55183L17.2365 5.34363C17.3299 5.27307 17.3918 5.16856 17.4087 5.05271C17.4257 4.93687 17.3963 4.81901 17.327 4.72464Z" fill="#282828"/>
<path d="M16.7734 2.82031H2.22656C1.63604 2.82031 1.06971 3.0549 0.652145 3.47246C0.234584 3.89002 0 4.45635 0 5.04688L0 13.9531C0 14.5436 0.234584 15.11 0.652145 15.5275C1.06971 15.9451 1.63604 16.1797 2.22656 16.1797H16.7734C17.364 16.1797 17.9303 15.9451 18.3479 15.5275C18.7654 15.11 19 14.5436 19 13.9531V5.04688C19 4.45635 18.7654 3.89002 18.3479 3.47246C17.9303 3.0549 17.364 2.82031 16.7734 2.82031ZM18.1094 13.9531C18.1094 14.3074 17.9686 14.6472 17.7181 14.8978C17.4676 15.1483 17.1278 15.2891 16.7734 15.2891H2.22656C1.87225 15.2891 1.53245 15.1483 1.28191 14.8978C1.03138 14.6472 0.890625 14.3074 0.890625 13.9531V5.04688C0.890625 4.69256 1.03138 4.35276 1.28191 4.10222C1.53245 3.85169 1.87225 3.71094 2.22656 3.71094H16.7734C17.1278 3.71094 17.4676 3.85169 17.7181 4.10222C17.9686 4.35276 18.1094 4.69256 18.1094 5.04688V13.9531Z" fill="#282828"/>
<path fill-rule="evenodd" clip-rule="evenodd" d="M0.475368 3.29568C0.939814 2.83124 1.56974 2.57031 2.22656 2.57031H16.7734C17.4303 2.57031 18.0602 2.83124 18.5246 3.29568C18.9891 3.76013 19.25 4.39005 19.25 5.04688V13.9531C19.25 14.61 18.9891 15.2399 18.5246 15.7043C18.0602 16.1688 17.4303 16.4297 16.7734 16.4297H2.22656C1.56974 16.4297 0.939814 16.1688 0.475368 15.7043C0.0109228 15.2399 -0.25 14.61 -0.25 13.9531V5.04688C-0.25 4.39005 0.0109228 3.76013 0.475368 3.29568ZM2.22656 3.07031C1.70235 3.07031 1.1996 3.27856 0.828922 3.64923C0.458244 4.01991 0.25 4.52266 0.25 5.04688V13.9531C0.25 14.4773 0.458244 14.9801 0.828922 15.3508C1.1996 15.7214 1.70235 15.9297 2.22656 15.9297H16.7734C17.2977 15.9297 17.8004 15.7214 18.1711 15.3508C18.5418 14.9801 18.75 14.4773 18.75 13.9531V5.04688C18.75 4.52266 18.5418 4.01991 18.1711 3.64923C17.8004 3.27856 17.2977 3.07031 16.7734 3.07031H2.22656ZM2.22656 3.96094C1.93855 3.96094 1.66234 4.07535 1.45869 4.279C1.25504 4.48265 1.14062 4.75887 1.14062 5.04688V13.9531C1.14062 14.2411 1.25504 14.5173 1.45869 14.721C1.66234 14.9247 1.93855 15.0391 2.22656 15.0391H16.7734C17.0614 15.0391 17.3377 14.9247 17.5413 14.721C17.745 14.5173 17.8594 14.2411 17.8594 13.9531V5.04688C17.8594 4.75887 17.745 4.48265 17.5413 4.279C17.3377 4.07535 17.0614 3.96094 16.7734 3.96094H2.22656ZM1.10514 3.92545C1.40256 3.62803 1.80595 3.46094 2.22656 3.46094H16.7734C17.1941 3.46094 17.5974 3.62803 17.8949 3.92545C18.1923 4.22287 18.3594 4.62626 18.3594 5.04688V13.9531C18.3594 14.3737 18.1923 14.7771 17.8949 15.0746C17.5974 15.372 17.1941 15.5391 16.7734 15.5391H2.22656C1.80595 15.5391 1.40256 15.372 1.10514 15.0746C0.807714 14.7771 0.640625 14.3737 0.640625 13.9531V5.04688C0.640625 4.62626 0.807714 4.22287 1.10514 3.92545Z" fill="#282828"/>
</g>
<defs>
<clipPath id="clip0_19_387">
<rect width="19" height="19" fill="white"/>
</clipPath>
</defs>
</svg>
