<svg width="22" height="22" viewBox="0 0 22 22" fill="none" xmlns="http://www.w3.org/2000/svg">
<path fill-rule="evenodd" clip-rule="evenodd" d="M10.2577 4.4705C10.0652 4.63306 10.0092 4.76906 10.0092 4.86927C10.0092 4.96947 10.0652 5.10548 10.2577 5.26803C10.4488 5.42941 10.7432 5.58826 11.1332 5.72754C11.9105 6.00517 13.0042 6.1826 14.2265 6.1826C15.4489 6.1826 16.5425 6.00517 17.3198 5.72754C17.7098 5.58826 18.0042 5.42941 18.1953 5.26803C18.3878 5.10548 18.4438 4.96947 18.4438 4.86927C18.4438 4.76906 18.3878 4.63306 18.1953 4.4705C18.0042 4.30912 17.7098 4.15027 17.3198 4.01099C16.5425 3.73336 15.4489 3.55593 14.2265 3.55593C13.0042 3.55593 11.9105 3.73336 11.1332 4.01099C10.7432 4.15027 10.4488 4.30912 10.2577 4.4705ZM10.9314 3.44594C11.789 3.13966 12.954 2.95593 14.2265 2.95593C15.499 2.95593 16.6641 3.13966 17.5217 3.44594C17.9491 3.59862 18.3163 3.78742 18.5824 4.01207C18.8471 4.23554 19.0438 4.52396 19.0438 4.86927C19.0438 5.21457 18.8471 5.50299 18.5824 5.72646C18.3163 5.95112 17.9491 6.13991 17.5217 6.29259C16.6641 6.59887 15.499 6.7826 14.2265 6.7826C12.954 6.7826 11.789 6.59887 10.9314 6.29259C10.5039 6.13991 10.1367 5.95112 9.87063 5.72646C9.60596 5.50299 9.40918 5.21457 9.40918 4.86927C9.40918 4.52396 9.60596 4.23554 9.87063 4.01207C10.1367 3.78742 10.5039 3.59862 10.9314 3.44594Z" fill="#0499DD"/>
<path fill-rule="evenodd" clip-rule="evenodd" d="M9.70918 4.89203C9.87487 4.89203 10.0092 5.02634 10.0092 5.19203V7.12803C10.0092 7.22822 10.0652 7.36421 10.2576 7.52676C10.4487 7.68812 10.743 7.84697 11.1329 7.98626C11.9102 8.2639 13.0038 8.44136 14.2265 8.44136C15.4492 8.44136 16.5428 8.2639 17.3201 7.98626C17.71 7.84697 18.0043 7.68812 18.1954 7.52676C18.3878 7.36421 18.4438 7.22822 18.4438 7.12803V5.19203C18.4438 5.02634 18.5782 4.89203 18.7438 4.89203C18.9095 4.89203 19.0438 5.02634 19.0438 5.19203V7.12803C19.0438 7.47328 18.8471 7.76167 18.5825 7.98515C18.3165 8.2098 17.9494 8.39861 17.5219 8.55129C16.6644 8.8576 15.4993 9.04136 14.2265 9.04136C12.9537 9.04136 11.7886 8.8576 10.9311 8.55129C10.5037 8.39861 10.1365 8.2098 9.87052 7.98515C9.6059 7.76167 9.40918 7.47328 9.40918 7.12803V5.19203C9.40918 5.02634 9.54349 4.89203 9.70918 4.89203Z" fill="#0499DD"/>
<path fill-rule="evenodd" clip-rule="evenodd" d="M18.7438 7.15057C18.9095 7.15057 19.0438 7.28489 19.0438 7.45057V9.38657C19.0438 9.73182 18.8471 10.0202 18.5825 10.2437C18.3165 10.4683 17.9493 10.6572 17.5219 10.8098C16.6643 11.1161 15.4993 11.2999 14.2265 11.2999C13.459 11.2999 12.7327 11.233 12.0906 11.1139C11.9276 11.0836 11.8201 10.9271 11.8503 10.7642C11.8805 10.6013 12.0371 10.4937 12.2 10.5239C12.8033 10.6358 13.4928 10.6999 14.2265 10.6999C15.4491 10.6999 16.5428 10.5224 17.32 10.2448C17.71 10.1055 18.0043 9.94667 18.1953 9.7853C18.3878 9.62276 18.4438 9.48677 18.4438 9.38657V7.45057C18.4438 7.28489 18.5781 7.15057 18.7438 7.15057Z" fill="#0499DD"/>
<path fill-rule="evenodd" clip-rule="evenodd" d="M9.70918 7.15057C9.87487 7.15057 10.0092 7.28489 10.0092 7.45057V8.82816L9.70918 8.82836L9.40918 8.82835V7.45057C9.40918 7.28489 9.54349 7.15057 9.70918 7.15057ZM9.70918 9.12836C9.54349 9.12836 9.40918 8.99403 9.40918 8.82835L9.70918 8.82836L10.0092 8.82816C10.0092 8.99385 9.87487 9.12836 9.70918 9.12836Z" fill="#0499DD"/>
<path fill-rule="evenodd" clip-rule="evenodd" d="M18.7439 9.4093C18.9095 9.4093 19.0439 9.54362 19.0439 9.7093V11.6453C19.0439 11.9906 18.8472 12.279 18.5825 12.5026C18.3165 12.7272 17.9494 12.916 17.5219 13.0687C16.6644 13.375 15.4993 13.5586 14.2265 13.5586C13.5211 13.5586 12.8509 13.5022 12.2486 13.4005C12.0853 13.3729 11.9752 13.2181 12.0028 13.0548C12.0304 12.8914 12.1852 12.7813 12.3485 12.8089C12.9156 12.9047 13.5522 12.9586 14.2265 12.9586C15.4492 12.9586 16.5428 12.7812 17.3201 12.5036C17.71 12.3644 18.0043 12.2055 18.1954 12.0442C18.3878 11.8816 18.4439 11.7456 18.4439 11.6453V9.7093C18.4439 9.54362 18.5782 9.4093 18.7439 9.4093Z" fill="#0499DD"/>
<path fill-rule="evenodd" clip-rule="evenodd" d="M18.7438 11.668C18.9095 11.668 19.0438 11.8023 19.0438 11.968V13.904C19.0438 14.2493 18.8471 14.5378 18.5825 14.7613C18.3165 14.986 17.9493 15.1748 17.5218 15.3274C16.6643 15.6337 15.4993 15.8174 14.2265 15.8174C13.5111 15.8174 12.8317 15.7593 12.223 15.6549C12.0597 15.6269 11.95 15.4719 11.978 15.3085C12.006 15.1452 12.1611 15.0356 12.3244 15.0636C12.8973 15.1618 13.5427 15.2174 14.2265 15.2174C15.4492 15.2174 16.5428 15.04 17.32 14.7624C17.71 14.6231 18.0043 14.4643 18.1953 14.3029C18.3878 14.1404 18.4438 14.0043 18.4438 13.904V11.968C18.4438 11.8023 18.5781 11.668 18.7438 11.668Z" fill="#0499DD"/>
<path fill-rule="evenodd" clip-rule="evenodd" d="M3.80459 9.95585C3.61208 10.1184 3.55605 10.2544 3.55605 10.3546C3.55605 10.4548 3.61208 10.5908 3.80459 10.7534C3.99572 10.9148 4.29007 11.0736 4.68005 11.2129C5.45741 11.4905 6.55104 11.668 7.77339 11.668C8.99574 11.668 10.0894 11.4905 10.8667 11.2129C11.2567 11.0736 11.5511 10.9148 11.7422 10.7534C11.9347 10.5908 11.9907 10.4548 11.9907 10.3546C11.9907 10.2544 11.9347 10.1184 11.7422 9.95585C11.5511 9.79447 11.2567 9.63562 10.8667 9.49634C10.0894 9.21871 8.99574 9.04128 7.77339 9.04128C6.55104 9.04128 5.45741 9.21871 4.68005 9.49634C4.29007 9.63562 3.99572 9.79447 3.80459 9.95585ZM4.47825 8.9313C5.33585 8.62501 6.50088 8.44128 7.77339 8.44128C9.04589 8.44128 10.2109 8.62501 11.0685 8.9313C11.496 9.08397 11.8632 9.27277 12.1293 9.49742C12.3939 9.7209 12.5907 10.0093 12.5907 10.3546C12.5907 10.6999 12.3939 10.9883 12.1293 11.2118C11.8632 11.4365 11.496 11.6253 11.0685 11.7779C10.2109 12.0842 9.04589 12.268 7.77339 12.268C6.50088 12.268 5.33585 12.0842 4.47825 11.7779C4.05076 11.6253 3.68356 11.4365 3.4175 11.2118C3.15284 10.9883 2.95605 10.6999 2.95605 10.3546C2.95605 10.0093 3.15284 9.7209 3.4175 9.49742C3.68356 9.27277 4.05076 9.08397 4.47825 8.9313Z" fill="#0499DD"/>
<path fill-rule="evenodd" clip-rule="evenodd" d="M3.25605 10.3774C3.42174 10.3774 3.55605 10.5117 3.55605 10.6774V12.6134C3.55605 12.7137 3.6121 12.8497 3.80453 13.0122C3.9956 13.1736 4.28987 13.3325 4.67981 13.4717C5.45707 13.7493 6.5507 13.9267 7.77339 13.9267C8.99608 13.9267 10.0897 13.7493 10.867 13.4717C11.2569 13.3325 11.5512 13.1736 11.7422 13.0122C11.9347 12.8497 11.9907 12.7137 11.9907 12.6134V10.6774C11.9907 10.5117 12.125 10.3774 12.2907 10.3774C12.4564 10.3774 12.5907 10.5117 12.5907 10.6774V12.6134C12.5907 12.9587 12.394 13.2471 12.1294 13.4706C11.8634 13.6953 11.4962 13.8841 11.0688 14.0368C10.2112 14.343 9.0462 14.5267 7.77339 14.5267C6.50058 14.5267 5.33553 14.343 4.478 14.0368C4.05055 13.8841 3.68339 13.6953 3.41738 13.4706C3.15274 13.2471 2.95605 12.9587 2.95605 12.6134V10.6774C2.95605 10.5117 3.09037 10.3774 3.25605 10.3774Z" fill="#0499DD"/>
<path fill-rule="evenodd" clip-rule="evenodd" d="M3.25605 12.6359C3.42174 12.6359 3.55605 12.7702 3.55605 12.9359V14.8719C3.55605 14.9722 3.6121 15.1083 3.80453 15.2708C3.9956 15.4322 4.28987 15.591 4.67981 15.7303C5.45707 16.0079 6.5507 16.1853 7.77339 16.1853C8.99608 16.1853 10.0897 16.0079 10.867 15.7303C11.2569 15.591 11.5512 15.4322 11.7422 15.2708C11.9347 15.1083 11.9907 14.9722 11.9907 14.8719V12.9359C11.9907 12.7702 12.125 12.6359 12.2907 12.6359C12.4564 12.6359 12.5907 12.7702 12.5907 12.9359V14.8719C12.5907 15.2172 12.394 15.5057 12.1294 15.7292C11.8634 15.9539 11.4962 16.1426 11.0688 16.2953C10.2112 16.6016 9.0462 16.7853 7.77339 16.7853C6.50058 16.7853 5.33553 16.6016 4.478 16.2953C4.05054 16.1426 3.68339 15.9539 3.41738 15.7292C3.15274 15.5057 2.95605 15.2172 2.95605 14.8719V12.9359C2.95605 12.7702 3.09037 12.6359 3.25605 12.6359Z" fill="#0499DD"/>
<path fill-rule="evenodd" clip-rule="evenodd" d="M3.25605 14.8947C3.42174 14.8947 3.55605 15.029 3.55605 15.1947V17.1307C3.55605 17.231 3.6121 17.367 3.80453 17.5295C3.9956 17.6909 4.28987 17.8497 4.67981 17.989C5.45707 18.2666 6.5507 18.444 7.77339 18.444C8.99608 18.444 10.0897 18.2666 10.867 17.989C11.2569 17.8497 11.5512 17.6909 11.7422 17.5295C11.9347 17.367 11.9907 17.231 11.9907 17.1307V15.1947C11.9907 15.029 12.125 14.8947 12.2907 14.8947C12.4564 14.8947 12.5907 15.029 12.5907 15.1947V17.1307C12.5907 17.476 12.394 17.7644 12.1294 17.9879C11.8634 18.2126 11.4962 18.4014 11.0688 18.554C10.2112 18.8603 9.0462 19.044 7.77339 19.044C6.50058 19.044 5.33553 18.8603 4.478 18.554C4.05054 18.4014 3.68339 18.2126 3.41738 17.9879C3.15274 17.7644 2.95605 17.476 2.95605 17.1307V15.1947C2.95605 15.029 3.09037 14.8947 3.25605 14.8947Z" fill="#0499DD"/>
</svg>
