<svg width="20" height="20" viewBox="0 0 20 20" fill="none" xmlns="http://www.w3.org/2000/svg">
<path fill-rule="evenodd" clip-rule="evenodd" d="M17.8038 3.42478C17.8029 3.42509 17.8021 3.4254 17.8013 3.42572L2.3497 9.37853C2.34917 9.37874 2.34864 9.37894 2.34811 9.37915C2.33783 9.38318 2.32776 9.3872 2.31792 9.39119L5.76909 10.4714L14.6702 4.86664C14.8397 4.75499 15.0204 4.67612 15.2009 4.63509C15.3712 4.59637 15.5958 4.57957 15.8191 4.65917C16.0656 4.74704 16.3861 5.00483 16.37 5.45244C16.3579 5.79143 16.1466 6.02142 16.0198 6.13487L8.80343 12.6557L8.63454 15.0499L10.0907 13.6494C10.3364 13.413 10.7167 13.3881 10.9912 13.5904L14.9605 16.5154C15.1069 16.593 15.1867 16.6062 15.2188 16.6075C15.2429 16.5797 15.3005 16.4944 15.3506 16.2756L17.9795 3.87778C18.0475 3.55926 17.9985 3.4287 17.9805 3.39438C17.9577 3.38937 17.9042 3.38747 17.8038 3.42478ZM17.9942 3.3997C17.994 3.40003 17.9917 3.39924 17.9876 3.39633C17.9923 3.39791 17.9943 3.39937 17.9942 3.3997ZM15.236 16.6068C15.236 16.6068 15.2353 16.607 15.2338 16.6072ZM10.8243 8.94269L6.24149 11.8283C6.06793 11.9376 5.85516 11.9653 5.65942 11.904L1.70713 10.667C1.4331 10.5814 1.16287 10.452 0.953058 10.2545C0.732973 10.0475 0.556688 9.73707 0.590152 9.35551C0.621636 8.99652 0.826968 8.72279 1.03807 8.53661C1.25287 8.34717 1.5296 8.19601 1.83974 8.07471L1.84307 8.07341L17.3097 2.11483C17.8317 1.91908 18.4815 1.92671 18.9528 2.38318C19.4139 2.82974 19.491 3.5025 19.3491 4.16819M19.3491 4.16819L16.7171 16.5807C16.5984 17.1044 16.3398 17.64 15.8008 17.8861C15.2573 18.1341 14.6905 17.9695 14.2408 17.7174C14.2156 17.7033 14.1912 17.6876 14.1679 17.6704L10.6358 15.0675L9.13273 16.5132C9.12916 16.5168 9.1255 16.5205 9.12176 16.5242C9.0248 16.6215 8.86967 16.7771 8.6659 16.8955C8.42699 17.0343 8.15595 17.1065 7.8371 17.1065C7.6429 17.1065 7.45742 17.0259 7.32501 16.8838C7.1926 16.7417 7.12517 16.551 7.13884 16.3573L7.42673 12.2761C7.43945 12.0957 7.5215 11.9272 7.65568 11.806L10.8243 8.94269M15.0861 5.09165L15.0836 5.0939C15.0925 5.08447 15.095 5.08372 15.0861 5.09165Z" fill="#282828"/>
</svg>
