<svg width="178" height="138" viewBox="0 0 178 138" fill="none" xmlns="http://www.w3.org/2000/svg">
<path opacity="0.4" d="M115.998 97.739C111.32 96.3389 106.391 91.8054 101.21 84.1386C96.232 76.3625 95.2831 67.3289 98.3633 57.0378C101.444 46.7467 108.087 38.4567 118.295 32.1676C128.502 25.8785 138.907 24.3208 149.51 27.4943C160.113 30.6679 167.935 36.322 172.975 44.4566C178.016 52.5912 178.949 61.96 175.776 72.5629C172.649 83.0099 166.528 93.2406 157.415 103.255C148.457 113.316 137.745 121.577 125.277 128.039C112.965 134.548 101.018 137.853 89.4349 137.954C85.0202 133.404 83.4423 128.175 84.7013 122.266C91.824 119.471 98.4704 115.429 104.641 110.14C111.013 104.742 114.799 100.608 115.998 97.739ZM32.0315 72.6071C27.5097 71.2536 22.6585 66.7435 17.4779 59.0767C12.4999 51.3006 11.551 42.267 14.6312 31.9759C17.7581 21.5289 24.4018 13.2388 34.5624 7.10566C44.7696 0.816586 55.1747 -0.741163 65.7777 2.43241C76.3806 5.60599 84.1244 11.2367 89.0091 19.3247C94.0497 27.4593 94.9832 36.828 91.8096 47.431C88.6827 57.878 82.5625 68.1087 73.4489 78.123C64.4912 88.184 53.7786 96.4454 41.3109 102.907C28.9993 109.416 17.0519 112.721 5.46888 112.822C1.10081 108.116 -0.477053 102.887 0.735299 97.1338C8.01391 94.3854 14.7383 90.3668 20.9084 85.078C27.0786 79.7892 30.7863 75.6322 32.0315 72.6071Z" fill="#FFC700"/>
</svg>
