<svg width="721" height="75" viewBox="0 0 721 75" fill="none" xmlns="http://www.w3.org/2000/svg">
<path fill-rule="evenodd" clip-rule="evenodd" d="M0.472046 1.8H34.824C44.5139 1.8 52.6635 4.33404 58.4299 9.09815C64.2377 13.8965 67.4481 20.8142 67.4481 29.144C67.4481 37.4738 64.2377 44.3915 58.4299 49.1898C52.6635 53.954 44.5139 56.488 34.824 56.488H27.128V73H0.472046V1.8ZM25.128 71H2.47205V3.8H34.824C53.5441 3.8 65.4481 13.592 65.4481 29.144C65.4481 44.696 53.5441 54.488 34.824 54.488H25.128V71ZM27.128 35.016H33.384C36.2162 35.016 37.972 34.3388 39.0026 33.4218C39.9956 32.5383 40.6 31.1776 40.6 29.144C40.6 27.1104 39.9956 25.7497 39.0026 24.8662C37.972 23.9492 36.2162 23.272 33.384 23.272H27.128V35.016ZM128.75 53.912V71H72.8783V3.8H127.502V20.888H95.1503V28.76H123.566V45.08H95.1503V53.912H128.75ZM97.1503 51.912H130.75V73H70.8783V1.8H129.502V22.888H97.1503V26.76H125.566V47.08H97.1503V51.912ZM176.634 73L165.21 56.104H162.128V73H135.472V1.8H169.824C179.514 1.8 187.664 4.33404 193.43 9.09815C199.238 13.8965 202.448 20.8142 202.448 29.144C202.448 38.7726 198.176 46.3157 190.655 50.9394L205.668 73H176.634ZM187.776 50.264C188.38 49.955 188.964 49.6282 189.528 49.2841C196.504 45.0303 200.448 38.1142 200.448 29.144C200.448 13.592 188.544 3.8 169.824 3.8H137.472V71H160.128V54.104H166.272L177.696 71H201.888L187.776 50.264ZM174.003 33.4218C174.996 32.5383 175.6 31.1776 175.6 29.144C175.6 27.1104 174.996 25.7497 174.003 24.8662C172.972 23.9492 171.216 23.272 168.384 23.272H162.128V35.016H168.384C171.216 35.016 172.972 34.3388 174.003 33.4218ZM284.155 37.4C284.155 59 267.079 74.536 244.235 74.536C221.392 74.536 204.315 59 204.315 37.4C204.315 15.8 221.392 0.264 244.235 0.264C267.079 0.264 284.155 15.8 284.155 37.4ZM235.023 48.3527C237.349 50.8221 240.58 52.2 244.235 52.2C247.89 52.2 251.121 50.8221 253.447 48.3527C255.774 45.8822 257.307 42.1961 257.307 37.4C257.307 32.6039 255.774 28.9178 253.447 26.4473C251.121 23.9778 247.89 22.6 244.235 22.6C240.58 22.6 237.349 23.9778 235.023 26.4473C232.696 28.9178 231.163 32.6039 231.163 37.4C231.163 42.1961 232.696 45.8822 235.023 48.3527ZM331.752 73V23.368H312.072V1.8H378.088V23.368H358.408V73H331.752ZM356.408 71H333.752V21.368H314.072V3.8H376.088V21.368H356.408V71ZM421.134 73L409.71 56.104H406.628V73H379.972V1.8H414.324C424.014 1.8 432.164 4.33404 437.93 9.09815C443.738 13.8965 446.948 20.8142 446.948 29.144C446.948 38.7726 442.676 46.3157 435.155 50.9394L445.895 66.7209L474.275 1.8H499.164L530.288 73H502.434L497.922 61.288H475.132L470.62 73H421.134ZM469.247 71L473.759 59.288H499.295L503.807 71H527.231L497.855 3.8H475.583L446.278 70.8383L432.276 50.264C432.88 49.955 433.464 49.6282 434.028 49.2841C441.004 45.0303 444.948 38.1142 444.948 29.144C444.948 13.592 433.044 3.8 414.324 3.8H381.972V71H404.628V54.104H410.772L422.196 71H469.247ZM418.503 33.4218C419.496 32.5383 420.1 31.1776 420.1 29.144C420.1 27.1104 419.496 25.7497 418.503 24.8662C417.472 23.9492 415.716 23.272 412.884 23.272H406.628V35.016H412.884C415.716 35.016 417.472 34.3388 418.503 33.4218ZM479.999 42.968H493.055L486.527 26.072L479.999 42.968ZM482.916 40.968H490.138L486.527 31.6214L482.916 40.968ZM575.208 1.8H657.69V22.888H625.338V26.76H653.754V47.08H625.338V51.912H658.938V73H599.066V8.33336L571.721 73H546.798L516.69 1.8H545.435L560.145 37.8268L575.208 1.8ZM560.123 43.064L544.091 3.8H519.707L548.123 71H570.395L598.811 3.8H576.539L560.123 43.064ZM656.938 53.912V71H601.066V3.8H655.69V20.888H623.338V28.76H651.754V45.08H623.338V53.912H656.938ZM663.66 73V1.8H690.316V51.432H720.652V73H663.66ZM718.652 53.432V71H665.66V3.8H688.316V53.432H718.652ZM33.384 37.016C39.6241 37.016 42.6 34.04 42.6 29.144C42.6 24.248 39.6241 21.272 33.384 21.272H25.128V37.016H33.384ZM168.384 37.016C174.624 37.016 177.6 34.04 177.6 29.144C177.6 24.248 174.624 21.272 168.384 21.272H160.128V37.016H168.384ZM282.155 37.4C282.155 57.752 266.123 72.536 244.235 72.536C222.347 72.536 206.315 57.752 206.315 37.4C206.315 17.048 222.347 2.264 244.235 2.264C266.123 2.264 282.155 17.048 282.155 37.4ZM229.163 37.4C229.163 47.864 235.883 54.2 244.235 54.2C252.587 54.2 259.307 47.864 259.307 37.4C259.307 26.936 252.587 20.6 244.235 20.6C235.883 20.6 229.163 26.936 229.163 37.4ZM412.884 37.016C419.124 37.016 422.1 34.04 422.1 29.144C422.1 24.248 419.124 21.272 412.884 21.272H404.628V37.016H412.884Z" fill="white"/>
</svg>
