<svg width="157" height="34" viewBox="0 0 157 34" fill="none" xmlns="http://www.w3.org/2000/svg">
<path d="M11.1679 14.312L11.4879 13.032C11.5732 12.7333 11.6372 12.328 11.6799 11.816C11.8079 11.3893 11.9146 10.92 11.9999 10.408C12.1706 8.872 12.1706 7.61333 11.9999 6.632C11.8719 5.69333 11.7012 4.94667 11.4879 4.392C11.1892 3.70933 10.8692 3.24 10.5279 2.984C9.88791 2.64267 9.35458 3.048 8.92791 4.2C8.50124 5.30933 8.13858 6.78133 7.83991 8.616C7.62658 10.6213 7.45591 12.776 7.32791 15.08C7.19991 17.512 7.15724 19.816 7.19991 21.992C7.45591 21.7787 7.73324 21.4587 8.03191 21.032C8.37324 20.6907 8.69324 20.264 8.99191 19.752C9.93058 18.088 10.6559 16.2747 11.1679 14.312ZM12.0639 30.056C12.2346 30.2267 12.4906 30.2693 12.8319 30.184C13.0452 30.0987 13.2372 29.9067 13.4079 29.608C13.5786 29.3093 13.7706 28.9467 13.9839 28.52C13.5572 28.2213 13.1306 27.9867 12.7039 27.816C12.2772 27.6453 11.9786 27.6667 11.8079 27.88C11.6799 28.0507 11.6159 28.2853 11.6159 28.584C11.5732 28.8827 11.5946 29.16 11.6799 29.416C11.7652 29.7147 11.8932 29.928 12.0639 30.056ZM19.6799 22.632C19.7652 24.168 19.5732 25.768 19.1039 27.432C18.8906 28.2853 18.6772 28.968 18.4639 29.48C18.7626 29.48 19.0399 29.3093 19.2959 28.968C19.7226 28.456 20.1492 27.88 20.5759 27.24C20.9599 26.6427 21.3226 26.0453 21.6639 25.448C21.9626 24.8933 22.2399 24.36 22.4959 23.848C22.7092 23.3787 22.8799 23.016 23.0079 22.76C23.0932 22.5467 23.2212 22.4827 23.3919 22.568H23.5199C23.7332 22.6533 23.8826 22.7813 23.9679 22.952C24.0106 23.1227 23.9892 23.3147 23.9039 23.528C22.7519 26.1307 21.6426 28.1787 20.5759 29.672C20.2346 30.2267 19.8719 30.5893 19.4879 30.76C19.1039 30.9733 18.7199 31.1013 18.3359 31.144C17.9519 31.144 17.6532 31.1013 17.4399 31.016L17.0559 31.464L16.6079 31.912C16.1386 32.296 15.6479 32.5947 15.1359 32.808C14.6666 33.0213 14.1546 33.1493 13.5999 33.192C13.0026 33.2347 12.3839 33.0853 11.7439 32.744C11.4026 32.5733 11.1252 32.36 10.9119 32.104C10.6986 31.8907 10.5066 31.592 10.3359 31.208C10.1652 30.8667 10.0586 30.4613 10.0159 29.992C9.97324 29.5653 9.99458 29.096 10.0799 28.584C10.1226 28.072 10.3359 27.5387 10.7199 26.984C11.1892 26.2587 11.7439 25.9813 12.3839 26.152C13.0239 26.3227 13.7066 26.664 14.4319 27.176L14.6879 26.088C14.7306 25.7467 14.7946 25.448 14.8799 25.192C15.0932 24.0827 15.1999 23.1867 15.1999 22.504C15.1999 22.248 15.1786 21.992 15.1359 21.736C15.0506 20.7547 14.9012 20.008 14.6879 19.496C14.3892 18.856 14.0266 18.472 13.5999 18.344C12.9172 18.3867 12.3199 18.7067 11.8079 19.304C11.2959 19.8587 10.8692 20.4773 10.5279 21.16C10.2292 21.8427 9.99458 22.5253 9.82391 23.208C9.65324 23.848 9.54658 24.2747 9.50391 24.488C8.90658 26.408 8.71458 29.032 8.92791 32.36C8.92791 32.5307 8.84258 32.7013 8.67191 32.872C8.50124 33 8.28791 33.064 8.03191 33.064C7.17858 33.0213 6.51724 32.8293 6.04791 32.488C5.57858 32.104 5.23724 31.7413 5.02391 31.4C4.72524 30.9307 4.53324 30.4187 4.44791 29.864C4.19191 28.2427 3.99991 27.496 3.87191 27.624C3.74391 27.752 3.70124 27.0053 3.74391 25.384C2.76258 25.5547 1.84524 25.5547 0.99191 25.384C0.73591 25.3413 0.60791 25.0853 0.60791 24.616C0.693244 24.0187 0.86391 23.7627 1.11991 23.848C1.46124 23.8907 1.80258 23.9333 2.14391 23.976C2.48524 23.9333 2.80524 23.8907 3.10391 23.848C3.35991 23.8053 3.59458 23.784 3.80791 23.784C3.80791 22.888 3.82924 22.1413 3.87191 21.544V18.344C3.91458 16.424 4.02124 14.5893 4.19191 12.84C4.36258 10.9627 4.66124 9.17067 5.08791 7.464C5.47191 5.84267 6.00524 4.392 6.68791 3.112C7.07191 2.25867 7.49858 1.61867 7.96791 1.192C8.39458 0.850668 8.79991 0.594668 9.18391 0.424001C9.56791 0.338666 9.90924 0.317332 10.2079 0.359998C10.5066 0.402666 10.7199 0.488 10.8479 0.615998C11.7866 0.957332 12.5332 1.832 13.0879 3.24C13.5572 4.60533 13.7919 6.03467 13.7919 7.528C13.7492 9.064 13.5786 10.6213 13.2799 12.2C13.0239 13.6933 12.6186 15.1013 12.0639 16.424C11.8506 16.936 11.6372 17.448 11.4239 17.96C11.6799 17.6613 11.9359 17.4267 12.1919 17.256C13.0026 16.6587 14.0266 16.424 15.2639 16.552C16.4586 16.68 17.4186 17.2347 18.1439 18.216C18.8692 19.1973 19.3599 20.3707 19.6159 21.736C19.6586 22.0347 19.6799 22.3333 19.6799 22.632Z" fill="#FFC700"/>
<path d="M24.2979 28.84C24.3832 28.072 24.3406 27.5173 24.1699 27.176C24.0419 26.8773 23.8712 26.6853 23.6579 26.6C23.5726 27.4533 23.5299 28.136 23.5299 28.648C23.5726 29.2027 23.6792 29.5013 23.8499 29.544C24.0206 29.544 24.1486 29.4373 24.2339 29.224L24.2979 28.84ZM30.4419 12.84C31.8926 12.84 32.8952 13.2667 33.4499 14.12C34.0472 14.9307 34.4312 15.784 34.6019 16.68C35.1139 15.656 35.7539 14.76 36.5219 13.992C37.3326 13.224 38.3352 12.84 39.5299 12.84C40.8099 12.84 41.7486 13.1813 42.3459 13.864C42.9432 14.5467 43.3486 15.2933 43.5619 16.104C43.7752 17.0853 43.8392 18.1733 43.7539 19.368C43.6686 20.5627 43.5832 21.7573 43.4979 22.952C43.4126 24.1467 43.3486 25.256 43.3059 26.28C43.3059 27.2613 43.3272 28.072 43.3699 28.712C43.4126 29.3093 43.4979 29.6293 43.6259 29.672C44.0952 29.2027 44.5432 28.6267 44.9699 27.944C45.4392 27.2613 45.8659 26.6 46.2499 25.96C46.6339 25.2773 46.9539 24.6587 47.2099 24.104C47.4659 23.5493 47.6579 23.144 47.7859 22.888C47.8712 22.6747 48.0206 22.6107 48.2339 22.696H48.3619C48.5752 22.7813 48.7032 22.9093 48.7459 23.08C48.8312 23.2507 48.8312 23.4427 48.7459 23.656C47.7219 25.9173 46.7619 27.7307 45.8659 29.096C45.0126 30.4187 44.2019 31.4 43.4339 32.04C42.7086 32.68 42.0046 33.0213 41.3219 33.064C40.6392 33.1067 39.9779 32.936 39.3379 32.552C38.6126 32.1253 38.1006 31.3573 37.8019 30.248C37.5032 29.096 37.3112 27.8587 37.2259 26.536C37.1406 25.1707 37.1192 23.8267 37.1619 22.504C37.2472 21.1387 37.3326 20.0293 37.4179 19.176C37.5459 18.2373 37.5672 17.5973 37.4819 17.256C37.3966 16.872 37.2472 16.6587 37.0339 16.616C36.7352 16.5733 36.4152 16.9147 36.0739 17.64C35.7752 18.3653 35.4766 19.24 35.1779 20.264C34.9219 21.2453 34.6872 22.2907 34.4739 23.4C34.3032 24.4667 34.1966 25.3627 34.1539 26.088V26.408C34.1539 26.4933 34.1539 26.6213 34.1539 26.792C34.1539 26.9627 34.1326 27.1547 34.0899 27.368C34.0899 27.6667 34.0472 28.0293 33.9619 28.456C33.8766 28.84 33.7486 29.224 33.5779 29.608C33.4499 29.9493 33.2579 30.248 33.0019 30.504C32.7459 30.76 32.4259 30.9093 32.0419 30.952C31.1459 31.0373 30.4419 30.8667 29.9299 30.44C29.4606 29.9707 29.0979 29.4587 28.8419 28.904C28.5432 28.264 28.3726 27.5387 28.3299 26.728C28.1592 25.2773 28.0952 23.912 28.1379 22.632C28.1806 21.3093 28.2232 20.1573 28.2659 19.176C28.3939 18.2373 28.4152 17.576 28.3299 17.192C28.2872 16.936 28.2232 16.7013 28.1379 16.488C28.0526 16.232 27.9246 15.976 27.7539 15.72C27.5832 15.5493 27.4339 15.5067 27.3059 15.592C26.9646 15.7627 26.6232 16.168 26.2819 16.808C25.9832 17.448 25.6846 18.1947 25.3859 19.048C25.0872 19.944 24.8099 20.8827 24.5539 21.864C24.3406 22.888 24.1486 23.8693 23.9779 24.808C24.8739 25.064 25.4926 25.6187 25.8339 26.472C26.2179 27.368 26.3672 28.3067 26.2819 29.288C26.2392 30.2693 26.0046 31.144 25.5779 31.912C25.1512 32.68 24.5752 33.064 23.8499 33.064C23.2526 33.064 22.8046 32.808 22.5059 32.296C22.2499 31.8267 22.0792 31.2507 21.9939 30.568C21.9086 29.928 21.8659 29.2667 21.8659 28.584C21.9086 27.9013 21.9512 27.368 21.9939 26.984C21.6526 27.368 21.3966 27.8587 21.2259 28.456C21.0552 29.096 20.9272 29.5867 20.8419 29.928C20.7566 30.2267 20.6072 30.2693 20.3939 30.056L20.3299 29.928C19.9032 29.2453 19.7966 28.4773 20.0099 27.624C20.1806 27.0693 20.4366 26.5147 20.7779 25.96C21.1192 25.4053 21.6312 25.0213 22.3139 24.808C22.7832 21.864 23.3379 19.5813 23.9779 17.96C24.6179 16.3813 25.2366 15.2293 25.8339 14.504C26.5592 13.608 27.3059 13.096 28.0739 12.968C28.7139 12.84 29.5032 12.7973 30.4419 12.84Z" fill="#FFC700"/>
<path d="M64.2784 22.696C64.4917 22.7813 64.6197 22.9093 64.6624 23.08C64.7477 23.2507 64.7477 23.4427 64.6624 23.656C64.1931 24.68 63.7451 25.6187 63.3184 26.472C62.8917 27.2827 62.4864 28.008 62.1024 28.648C61.3771 29.7573 60.5451 30.696 59.6064 31.464C58.7957 32.104 57.8144 32.616 56.6624 33C55.5104 33.4267 54.1877 33.4053 52.6944 32.936C51.8837 32.68 51.0517 32.168 50.1984 31.4C49.3877 30.632 48.7051 29.672 48.1504 28.52C47.5957 27.368 47.2331 26.0667 47.0624 24.616C46.8917 23.1227 47.0624 21.5227 47.5744 19.816C48.0437 18.152 48.6411 16.872 49.3664 15.976C50.1344 15.0373 50.8811 14.3333 51.6064 13.864C52.4171 13.352 53.2704 13.0533 54.1664 12.968C55.2331 12.8827 56.1291 13.0107 56.8544 13.352C57.5797 13.6507 58.1771 14.0347 58.6464 14.504C59.0304 14.9307 59.3291 15.3787 59.5424 15.848C59.7557 16.2747 59.8624 16.7653 59.8624 17.32C59.9051 17.8747 59.7771 18.5147 59.4784 19.24C59.1371 20.008 58.6464 20.648 58.0064 21.16C57.4517 21.6293 56.7051 22.0133 55.7664 22.312C54.8277 22.568 53.6331 22.5893 52.1824 22.376C52.1824 22.504 52.1611 22.632 52.1184 22.76C52.1184 22.888 52.1184 23.016 52.1184 23.144C52.0331 24.552 52.0757 25.832 52.2464 26.984C52.4171 27.9653 52.7371 28.904 53.2064 29.8C53.6757 30.6533 54.4224 31.1227 55.4464 31.208C56.1717 31.2933 56.8544 31.1653 57.4944 30.824C58.1771 30.4827 58.7744 30.0773 59.2864 29.608C59.8837 29.096 60.4597 28.4987 61.0144 27.816C61.6544 26.8347 62.2091 25.8747 62.6784 24.936C63.1904 23.9547 63.5317 23.272 63.7024 22.888C63.7877 22.6747 63.9371 22.6107 64.1504 22.696H64.2784ZM58.1344 15.592C57.8357 15.2933 57.4304 15.208 56.9184 15.336C56.4064 15.464 55.8731 15.784 55.3184 16.296C54.7637 16.7653 54.2304 17.4053 53.7184 18.216C53.2064 18.984 52.8011 19.88 52.5024 20.904C52.8864 20.9893 53.3131 21.032 53.7824 21.032C54.2517 21.032 54.7211 20.968 55.1904 20.84C55.7024 20.712 56.1717 20.5413 56.5984 20.328C57.0677 20.072 57.4731 19.7093 57.8144 19.24C58.1984 18.6853 58.4331 18.1947 58.5184 17.768C58.6464 17.2987 58.6677 16.8933 58.5824 16.552C58.4971 16.168 58.3477 15.848 58.1344 15.592Z" fill="#FFC700"/>
<path d="M74.1984 20.136C73.6864 20.136 73.2384 20.008 72.8544 19.752C72.5984 19.5813 72.5557 19.368 72.7264 19.112C73.1104 18.6 73.3451 18.152 73.4304 17.768C73.5584 17.384 73.6224 17.064 73.6224 16.808C73.6224 16.5093 73.5584 16.232 73.4304 15.976C73.0037 15.72 72.5131 15.6987 71.9584 15.912C71.4037 16.0827 70.8491 16.4667 70.2944 17.064C69.7824 17.6613 69.3131 18.472 68.8864 19.496C68.5024 20.52 68.2464 21.736 68.1184 23.144C68.0757 24.552 68.1397 25.832 68.3104 26.984C68.4811 27.9653 68.8011 28.904 69.2704 29.8C69.7397 30.6533 70.4651 31.1227 71.4464 31.208C72.1717 31.2933 72.8544 31.1653 73.4944 30.824C74.1771 30.4827 74.7744 30.0773 75.2864 29.608C75.8837 29.096 76.4597 28.4987 77.0144 27.816C77.6971 26.8347 78.2731 25.8747 78.7424 24.936C79.2117 23.9547 79.5317 23.272 79.7024 22.888C79.8731 22.7173 80.0224 22.6533 80.1504 22.696H80.2784C80.4917 22.7813 80.6197 22.9093 80.6624 23.08C80.7477 23.2507 80.7477 23.4427 80.6624 23.656C80.1931 24.68 79.7451 25.6187 79.3184 26.472C78.8917 27.2827 78.4864 28.008 78.1024 28.648C77.4197 29.7573 76.6091 30.696 75.6704 31.464C74.8597 32.104 73.8571 32.616 72.6624 33C71.5104 33.4267 70.1877 33.4053 68.6944 32.936C67.8837 32.68 67.0731 32.168 66.2624 31.4C65.4517 30.632 64.7691 29.672 64.2144 28.52C63.6597 27.368 63.2971 26.0667 63.1264 24.616C62.9557 23.1227 63.1051 21.5227 63.5744 19.816C64.0437 18.152 64.6411 16.872 65.3664 15.976C66.1344 15.0373 66.8811 14.3333 67.6064 13.864C68.4171 13.352 69.2704 13.0533 70.1664 12.968C71.2757 12.8827 72.1717 13.0107 72.8544 13.352C73.5797 13.6507 74.1771 14.0347 74.6464 14.504C75.0304 14.9307 75.3291 15.3787 75.5424 15.848C75.7557 16.2747 75.8624 16.7653 75.8624 17.32C75.9051 17.8747 75.7771 18.5147 75.4784 19.24C75.1797 19.8373 74.7531 20.136 74.1984 20.136Z" fill="#FFC700"/>
<path d="M93.6544 27.368C93.6544 27.6667 93.6117 28.0293 93.5264 28.456C93.4411 28.84 93.3131 29.224 93.1424 29.608C93.0144 29.9493 92.8224 30.248 92.5664 30.504C92.3104 30.76 91.9904 30.9093 91.6064 30.952C90.7104 31.0373 90.0064 30.8667 89.4944 30.44C89.0251 29.9707 88.6624 29.4587 88.4064 28.904C88.1077 28.264 87.9371 27.5387 87.8944 26.728C87.7237 25.2773 87.6597 23.912 87.7024 22.632C87.7451 21.3093 87.7877 20.1573 87.8304 19.176C87.9584 18.2373 87.9797 17.5973 87.8944 17.256C87.8091 16.872 87.6597 16.6587 87.4464 16.616C87.1477 16.5733 86.8491 16.8933 86.5504 17.576C86.2517 18.2587 85.9531 19.0907 85.6544 20.072C85.3984 21.0533 85.1637 22.0773 84.9504 23.144C84.7797 24.2107 84.6731 25.128 84.6304 25.896C84.5451 27.2187 84.4811 28.4987 84.4384 29.736C84.4384 30.9307 84.4384 31.9547 84.4384 32.808C84.4384 33.3627 84.1611 33.64 83.6064 33.64C81.9424 33.512 80.7904 32.6587 80.1504 31.08C79.5104 29.5013 79.1691 27.432 79.1264 24.872C79.0411 23.4213 79.0197 22.0133 79.0624 20.648C79.0624 19.24 79.1051 18.1093 79.1904 17.256C79.3184 16.1467 79.7877 15.2293 80.5984 14.504C81.0677 14.12 81.6011 13.7573 82.1984 13.416C82.8384 13.032 83.6917 12.8187 84.7584 12.776C85.0997 12.776 85.2704 12.9467 85.2704 13.288C85.2277 13.7573 85.1637 14.8453 85.0784 16.552C85.5904 15.5707 86.2304 14.7173 86.9984 13.992C87.8091 13.224 88.8117 12.84 90.0064 12.84C91.4571 12.84 92.4597 13.2667 93.0144 14.12C93.6117 14.9307 93.9957 15.784 94.1664 16.68C94.6784 15.656 95.3184 14.76 96.0864 13.992C96.8971 13.224 97.8997 12.84 99.0944 12.84C100.374 12.84 101.313 13.1813 101.91 13.864C102.508 14.5467 102.913 15.2933 103.126 16.104C103.34 17.0853 103.404 18.1733 103.318 19.368C103.233 20.5627 103.148 21.7573 103.062 22.952C102.977 24.1467 102.913 25.256 102.87 26.28C102.87 27.2613 102.892 28.072 102.934 28.712C102.977 29.3093 103.062 29.6293 103.19 29.672C103.66 29.2027 104.108 28.6267 104.534 27.944C105.004 27.2613 105.43 26.6 105.814 25.96C106.198 25.2773 106.518 24.6587 106.774 24.104C107.03 23.5493 107.222 23.144 107.35 22.888C107.436 22.6747 107.585 22.6107 107.798 22.696H107.926C108.14 22.7813 108.268 22.9093 108.31 23.08C108.396 23.2507 108.396 23.4427 108.31 23.656C107.286 25.9173 106.326 27.7307 105.43 29.096C104.577 30.4187 103.766 31.4 102.998 32.04C102.273 32.68 101.569 33.0213 100.886 33.064C100.204 33.1067 99.5424 32.936 98.9024 32.552C98.1771 32.1253 97.6651 31.3573 97.3664 30.248C97.0677 29.096 96.8757 27.8587 96.7904 26.536C96.7051 25.1707 96.6837 23.8267 96.7264 22.504C96.8117 21.1387 96.8971 20.0293 96.9824 19.176C97.1104 18.2373 97.1317 17.5973 97.0464 17.256C96.9611 16.872 96.8117 16.6587 96.5984 16.616C96.2997 16.5733 95.9797 16.9147 95.6384 17.64C95.3397 18.3653 95.0411 19.24 94.7424 20.264C94.4864 21.2453 94.2517 22.2907 94.0384 23.4C93.8677 24.4667 93.7611 25.3627 93.7184 26.088V26.408C93.7184 26.4933 93.7184 26.6213 93.7184 26.792C93.7184 26.9627 93.6971 27.1547 93.6544 27.368Z" fill="#FFC700"/>
<path d="M123.903 22.696C124.117 22.7813 124.245 22.9093 124.287 23.08C124.373 23.2507 124.373 23.4427 124.287 23.656C123.818 24.68 123.37 25.6187 122.943 26.472C122.517 27.2827 122.111 28.008 121.727 28.648C121.002 29.7573 120.17 30.696 119.231 31.464C118.421 32.104 117.439 32.616 116.287 33C115.135 33.4267 113.813 33.4053 112.319 32.936C111.509 32.68 110.677 32.168 109.823 31.4C109.013 30.632 108.33 29.672 107.775 28.52C107.221 27.368 106.858 26.0667 106.687 24.616C106.517 23.1227 106.687 21.5227 107.199 19.816C107.669 18.152 108.266 16.872 108.991 15.976C109.759 15.0373 110.506 14.3333 111.231 13.864C112.042 13.352 112.895 13.0533 113.791 12.968C114.858 12.8827 115.754 13.0107 116.479 13.352C117.205 13.6507 117.802 14.0347 118.271 14.504C118.655 14.9307 118.954 15.3787 119.167 15.848C119.381 16.2747 119.487 16.7653 119.487 17.32C119.53 17.8747 119.402 18.5147 119.103 19.24C118.762 20.008 118.271 20.648 117.631 21.16C117.077 21.6293 116.33 22.0133 115.391 22.312C114.453 22.568 113.258 22.5893 111.807 22.376C111.807 22.504 111.786 22.632 111.743 22.76C111.743 22.888 111.743 23.016 111.743 23.144C111.658 24.552 111.701 25.832 111.871 26.984C112.042 27.9653 112.362 28.904 112.831 29.8C113.301 30.6533 114.047 31.1227 115.071 31.208C115.797 31.2933 116.479 31.1653 117.119 30.824C117.802 30.4827 118.399 30.0773 118.911 29.608C119.509 29.096 120.085 28.4987 120.639 27.816C121.279 26.8347 121.834 25.8747 122.303 24.936C122.815 23.9547 123.157 23.272 123.327 22.888C123.413 22.6747 123.562 22.6107 123.775 22.696H123.903ZM117.759 15.592C117.461 15.2933 117.055 15.208 116.543 15.336C116.031 15.464 115.498 15.784 114.943 16.296C114.389 16.7653 113.855 17.4053 113.343 18.216C112.831 18.984 112.426 19.88 112.127 20.904C112.511 20.9893 112.938 21.032 113.407 21.032C113.877 21.032 114.346 20.968 114.815 20.84C115.327 20.712 115.797 20.5413 116.223 20.328C116.693 20.072 117.098 19.7093 117.439 19.24C117.823 18.6853 118.058 18.1947 118.143 17.768C118.271 17.2987 118.293 16.8933 118.207 16.552C118.122 16.168 117.973 15.848 117.759 15.592Z" fill="#FFC700"/>
<path d="M149.823 20.136C149.311 20.136 148.863 20.008 148.479 19.752C148.223 19.5813 148.181 19.368 148.351 19.112C148.735 18.6 148.97 18.152 149.055 17.768C149.183 17.384 149.247 17.064 149.247 16.808C149.247 16.5093 149.183 16.232 149.055 15.976C148.629 15.72 148.138 15.6987 147.583 15.912C147.029 16.0827 146.474 16.4667 145.919 17.064C145.407 17.6613 144.938 18.472 144.511 19.496C144.127 20.52 143.871 21.736 143.743 23.144C143.701 24.552 143.765 25.832 143.935 26.984C144.106 27.9653 144.426 28.904 144.895 29.8C145.365 30.6533 146.09 31.1227 147.071 31.208C147.797 31.2933 148.479 31.1653 149.119 30.824C149.802 30.4827 150.399 30.0773 150.911 29.608C151.509 29.096 152.085 28.4987 152.639 27.816C153.322 26.8347 153.898 25.8747 154.367 24.936C154.837 23.9547 155.157 23.272 155.327 22.888C155.498 22.7173 155.647 22.6533 155.775 22.696H155.903C156.117 22.7813 156.245 22.9093 156.287 23.08C156.373 23.2507 156.373 23.4427 156.287 23.656C155.818 24.68 155.37 25.6187 154.943 26.472C154.517 27.2827 154.111 28.008 153.727 28.648C153.045 29.7573 152.234 30.696 151.295 31.464C150.485 32.104 149.482 32.616 148.287 33C147.135 33.4267 145.813 33.4053 144.319 32.936C143.509 32.68 142.698 32.168 141.887 31.4C141.077 30.632 140.394 29.672 139.839 28.52C139.285 27.368 138.922 26.0667 138.751 24.616C138.581 23.1227 138.73 21.5227 139.199 19.816C139.669 18.152 140.266 16.872 140.991 15.976C141.759 15.0373 142.506 14.3333 143.231 13.864C144.042 13.352 144.895 13.0533 145.791 12.968C146.901 12.8827 147.797 13.0107 148.479 13.352C149.205 13.6507 149.802 14.0347 150.271 14.504C150.655 14.9307 150.954 15.3787 151.167 15.848C151.381 16.2747 151.487 16.7653 151.487 17.32C151.53 17.8747 151.402 18.5147 151.103 19.24C150.805 19.8373 150.378 20.136 149.823 20.136Z" fill="#FFC700"/>
</svg>
